# xmcd
#
# Track frame offsets:
# 151
# 17402
# 35783
# 52914
# 68267
# 83970
# 116345
# 142451
# 159324
# 184165
# 204739
# 221280
#
# Disc length: 3171 seconds
#
# Revision: 0
# Processed by: cddbd v1.5.1PL2 Copyright (c) Steve Scherf et al.
# Submitted via: Audion 3.0.2 (http://www.panic.com/audion/)
#
DISCID=a10c610c
DTITLE=tft - live blues
DYEAR=1900
DGENRE=
TTITLE0=l
TTITLE1=l
TTITLE2=l
TTITLE3=l
TTITLE4=l
TTITLE5=l
TTITLE6=l
TTITLE7=l
TTITLE8=l
TTITLE9=l
TTITLE10=l
TTITLE11=l
EXTD=
EXTT0=
EXTT1=
EXTT2=
EXTT3=
EXTT4=
EXTT5=
EXTT6=
EXTT7=
EXTT8=
EXTT9=
EXTT10=
EXTT11=
PLAYORDER=
